# xmcd
#
# Track frame offsets:
#	150
#	16400
#	31040
#	49915
#	70653
#	89100
#	107755
#	124908
#	135292
#	154419
#	171662
#	190137
#	211525
#	232134
#	250835
#	264797
#	277110
#	294770
#
# Disc length: 4106 seconds
#
# Revision: 4
# Processed by: cddbd v1.5.2PL0 Copyright (c) Steve Scherf et al.
# Submitted via: audiograbber 1.83.01
#
DISCID=01100812
DTITLE=Various Artist - Sunday Morning
DYEAR=2010
DGENRE=Pop
TTITLE0=Nina Simone - Here Comes The Sun
TTITLE1=Louis Armstring - We Have All The Time In The World
TTITLE2=Bill Withers - Lovely Day
TTITLE3=John Denver - Mr. Bojangles
TTITLE4=Dido - Here With Me
TTITLE5=Anders Widmark and Sara Isaksson - To Open Up My Heart
TTITLE6=Alicia Keys - If I Ain't Got You
TTITLE7=Andy Williams - Wives And Lovers
TTITLE8=Macy Gray - Still
TTITLE9=The Isley Brothers - Summer Breeze
TTITLE10=Bo Kaspers Orkester - Ett and Noll
TTITLE11=Billy Paul - Me And Mrs. Jones
TTITLE12=Tim Christensen - India
TTITLE13=Ryan Adams - Wonderwall
TTITLE14=Norah Jones - Don't Know Why
TTITLE15=Dusty Springfield - Spooky
TTITLE16=Whitney Houston - My Love Is Your Love
TTITLE17=The Velvet Underground And Nico - Sunday Morning
EXTD=
EXTT0=
EXTT1=
EXTT2=
EXTT3=
EXTT4=
EXTT5=
EXTT6=
EXTT7=
EXTT8=
EXTT9=
EXTT10=
EXTT11=
EXTT12=
EXTT13=
EXTT14=
EXTT15=
EXTT16=
EXTT17=
PLAYORDER=
